# xmcd
#
# Track frame offsets:
#	150
#	18333
#	36224
#	50945
#	66646
#	81543
#	101141
#	115448
#	132609
#	149376
#	165197
#	179783
#	198735
#	216545
#	231326
#	249332
#
# Disc length: 3465 seconds
# Revision: 0
# Processed by: cddbd v1.5.2PL0 Copyright (c) Steve Scherf et al.
# Submitted via: dBpowerAMP V12.0
#
DISCID=090d8710
DTITLE=Rod Balch - Fort Worth 76102
DYEAR=2013
DGENRE=Country
TTITLE0=The Red Truck
TTITLE1=The New York Shuffle
TTITLE2=Rehab Rendevous
TTITLE3=Up The Road
TTITLE4=Jesus In Jail
TTITLE5=The Alamo
TTITLE6=The Bar Song
TTITLE7=Magdalena's Waltz
TTITLE8=Beer Here
TTITLE9=Vagabond Magazine Blues
TTITLE10=Bootleg Valentine
TTITLE11=Blood In My Eyes
TTITLE12=Carla's Room
TTITLE13=Ripple
TTITLE14=Swing Me Back
TTITLE15=Cowtown
EXTD=
EXTT0=
EXTT1=
EXTT2=
EXTT3=
EXTT4=
EXTT5=
EXTT6=
EXTT7=
EXTT8=
EXTT9=
EXTT10=
EXTT11=
EXTT12=
EXTT13=
EXTT14=
EXTT15=
PLAYORDER=
